<svg fill="#000000" viewBox="0 0 24 24" id="delete-contact-book" data-name="Flat Line" xmlns="http://www.w3.org/2000/svg" class="icon flat-line"><g id="SVGRepo_bgCarrier" stroke-width="0"></g><g id="SVGRepo_tracerCarrier" stroke-linecap="round" stroke-linejoin="round"></g><g id="SVGRepo_iconCarrier"><rect id="secondary" x="4" y="3" width="15" height="18" rx="1" style="fill: #ffc2ef; stroke-width:2.016;"></rect><path id="primary" d="M21,7H19V9h2Zm0,6H19v2h2Zm-3,8H5a1,1,0,0,1-1-1V4A1,1,0,0,1,5,3H18a1,1,0,0,1,1,1V20A1,1,0,0,1,18,21ZM5,8H3m2,4H3m2,4H3m7-4h4" style="fill: none; stroke: #bd85c1; stroke-linecap: round; stroke-linejoin: round; stroke-width:2.016;"></path></g></svg>